<?xml version="1.0" standalone="no"?>
<!DOCTYPE svg PUBLIC "-//W3C//DTD SVG 1.1//EN" "http://www.w3.org/Graphics/SVG/1.1/DTD/svg11.dtd" >
<svg xmlns="http://www.w3.org/2000/svg">
<metadata>Generated by IcoMoon</metadata>
<defs>
<font id="icomoon" horiz-adv-x="1024">
<font-face units-per-em="1024" ascent="960" descent="-64" />
<missing-glyph horiz-adv-x="1024" />
<glyph unicode="&#x20;" horiz-adv-x="512" d="" />
<glyph unicode="&#xe900;" glyph-name="facebook-circled" d="M512 960c282.77 0 512-229.23 512-512s-229.23-512-512-512c-282.77 0-512 229.23-512 512s229.23 512 512 512zM454.4 240h76.8v192h57.6l6.176 57.6h-63.776v38.4c5.44 19.584 7.072 28.96 32.16 28.96h25.44v67.040h-45.568c-64.416 0-87.072-32.512-88.832-96v-38.4h-38.4v-57.6h38.4v-192z" />
<glyph unicode="&#xe901;" glyph-name="certificate" horiz-adv-x="763" d="M279.090 46.753c3.31 2.519 7.501 4.036 12.047 4.036s8.737-1.517 12.096-4.072l-0.049 0.036 58.227-43.952v120.671c-5.582-7.241-13.012-12.803-21.59-16.013l-0.336-0.11c-2.902-1.429-6.271-2.545-9.806-3.178l-0.233-0.035c-2.224-0.374-4.787-0.587-7.399-0.587-0.54 0-1.078 0.009-1.613 0.027l0.078-0.002c-11.036 0.149-21.229 3.635-29.65 9.492l0.175-0.115c-8.421-5.492-18.729-8.759-29.8-8.759-6.524 0-12.784 1.134-18.592 3.217l0.384-0.12c-9.019 3.823-16.504 9.767-22.067 17.228l-0.1 0.14v-121.856l58.227 43.972zM359.344 271.531c-0.522 0.683-0.984 1.024-1.486 1.887-2.018 3.324-3.213 7.342-3.213 11.639 0 0.038 0 0.075 0 0.113v-0.006c0 2.168 0.341 4.337 1.024 6.385 2.249 6.787 1.265 11.164-2.53 14.195-4.136 3.353-10.742 3.614-15.521 0.743-2.949-1.811-6.518-2.886-10.339-2.891h-0.002c-4.779 0-6.847 0.221-11.244 2.429-3.333 1.667-3.996 2.269-7.469 5.763-2.152 2.163-3.818 4.812-4.817 7.769l-0.042 0.142c-1.968 5.923-5.963 8.895-12.569 8.895-5.716-0.174-10.55-3.77-12.536-8.8l-0.033-0.094c-2.008-6.024-6.666-10.642-12.408-12.69-3.127-2.135-6.99-3.409-11.15-3.409-3.82 0-7.388 1.074-10.421 2.937l0.087-0.050c-4.779 2.871-11.405 2.61-15.541-0.743-3.795-3.012-4.779-7.409-2.53-14.195 0.683-2.048 1.024-4.216 1.024-6.385 0-4.216-1.104-8.232-3.213-11.746-0.502-0.863-0.964-1.205-1.486-1.887-2.788-5.613-7.992-9.665-14.213-10.823l-0.123-0.019c-5.341-1.149-9.472-5.294-10.586-10.552l-0.016-0.089c-0.079-0.553-0.125-1.192-0.125-1.842 0-4.881 2.561-9.163 6.412-11.577l0.057-0.033c6.044-3.674 9.758-10.24 9.758-17.348v-6.827c0-4.578-1.566-9.035-4.417-12.609-3.353-4.216-3.534-8.614-0.703-13.352 2.711-4.558 8.292-7.228 13.352-6.385 1.002 0.178 2.155 0.28 3.332 0.28 5.542 0 10.556-2.256 14.176-5.901l0.001-0.001c6.104-3.815 10.401-9.999 10.401-18.854 0-4.498 3.192-8.975 6.586-10.381 5.401-1.807 11.204-0.201 15.601 4.216 3.622 3.658 8.644 5.922 14.195 5.923h9.035c5.321 0 10.441-2.128 14.195-5.923 3.494-3.514 7.61-5.421 10.662-5.421h2.329c-0.361-0.080 2.61 1.205 2.61 1.205 4.578 1.546 6.606 4.618 6.606 10.381 0 5.361 2.108 10.501 5.863 14.296 1.405 1.405 2.791 2.49 3.976 3.353 4.397 5.020 10.883 8.031 18.051 6.827 0.543-0.077 1.17-0.121 1.807-0.121 4.876 0 9.15 2.579 11.532 6.448l0.034 0.059c2.028 3.413 1.426 10.441-1.104 13.854-2.513 3.333-4.028 7.543-4.036 12.105v6.829c0 7.108 3.715 13.673 9.758 17.328 3.909 2.447 6.47 6.73 6.47 11.611 0 0.65-0.045 1.289-0.133 1.914l0.008-0.072c-1.122 5.356-5.255 9.51-10.511 10.645l-0.090 0.016c-6.344 1.177-11.548 5.23-14.284 10.727l-0.052 0.116zM158.399 256.673c2.922 16.457 12.951 30.11 26.735 37.888l0.27 0.14c-0.984 16.364 5.18 31.764 18.653 42.606 9.040 7.225 20.637 11.595 33.255 11.595 3.981 0 7.86-0.435 11.593-1.26l-0.355 0.066c9.909 12.876 25.266 21.136 42.559 21.303h0.027c17.95 0 33.23-7.951 42.888-21.243 3.301 0.725 7.092 1.141 10.981 1.141 12.602 0 24.184-4.364 33.318-11.664l-0.107 0.082c13.473-10.842 19.637-26.263 18.673-42.627 14.041-7.929 24.059-21.578 26.937-37.701l0.048-0.328c0.437-2.581 0.687-5.555 0.687-8.587 0-13.754-5.141-26.307-13.606-35.842l0.048 0.056c5.642-14.858 5.020-32.728-3.253-46.642-1.902-3.055-3.942-5.707-6.213-8.143l0.029 0.031v-195.142c0-16.645-18.894-26.162-32.125-16.163l-78.306 59.091-78.306-59.091c-13.232-9.999-32.125-0.482-32.125 16.163v195.162c-2.228 2.4-4.261 5.046-6.035 7.871l-0.129 0.221c-8.814 14.778-10.12 31.844-3.614 47.044-8.209 9.423-13.214 21.824-13.214 35.395 0 3.028 0.249 5.998 0.728 8.891l-0.043-0.314zM155.608 510.464h451.765v40.398h-451.765v-40.418zM155.608 646.817h451.765v40.418h-451.765v-40.418zM742.902 10.391h-316.235v40.398h296.157v868.794h-682.667v-868.794h115.451v-40.398h-135.529c-11.083 0-20.078 9.035-20.078 20.199v909.192c0 11.184 8.995 20.219 20.078 20.219h722.824c11.083 0 20.078-9.035 20.078-20.219v-909.192c0-11.164-8.995-20.199-20.078-20.199z" />
<glyph unicode="&#xe902;" glyph-name="twitter-circled" d="M512 960c282.77 0 512-229.23 512-512s-229.23-512-512-512c-282.77 0-512 229.23-512 512s229.23 512 512 512zM497.984 515.328l0.896-15.072-15.040 1.856c-54.688 7.040-102.496 31.040-143.040 71.36l-19.84 19.968-5.12-14.752c-10.848-32.928-3.904-67.68 18.624-91.040 12-12.928 9.312-14.752-11.424-7.040-7.232 2.432-13.504 4.256-14.144 3.36-2.080-2.176 5.12-30.144 10.848-41.216 7.808-15.392 23.744-30.432 41.184-39.36l14.72-7.104-17.44-0.32c-16.8 0-17.408-0.288-15.616-6.72 6.016-20 29.76-41.248 56.192-50.464l18.656-6.464-16.256-9.824c-23.090-13.7-50.773-22.054-80.355-22.717l-0.189-0.003c-13.536-0.32-24.64-1.568-24.64-2.496 0-3.040 36.672-20.288 58.016-27.040 64-20 140.064-11.392 197.152 22.752 40.608 24.32 81.184 72.576 100.096 119.328 10.24 24.896 20.48 70.432 20.48 92.224 0 14.176 0.896 16 17.696 32.896 9.952 9.888 19.264 20.608 21.056 23.68 3.040 5.856 2.688 5.856-12.608 0.64-25.568-9.216-29.184-8-16.544 5.856 9.344 9.824 20.448 27.648 20.448 32.896 0 0.928-4.512-0.608-9.6-3.392-5.44-3.072-17.472-7.68-26.464-10.432l-16.224-5.248-14.72 10.144c-8.128 5.536-19.52 11.712-25.6 13.568-15.296 4.256-38.752 3.68-52.576-1.248-37.568-13.856-61.312-49.536-58.624-88.576z" />
<glyph unicode="&#xe903;" glyph-name="gplus" horiz-adv-x="1600" d="M1434.496 573.824v165.504h-110.336v-165.504h-165.568v-110.464h165.568v-165.504h110.336v165.568h165.504v110.4h-165.504zM982.912 562.752c6.528-32.128 10.24-65.28 10.24-99.328 0-274.216-222.296-496.512-496.512-496.512-0.045 0-0.090 0-0.135 0h0.007c-274.193 0-496.475 222.259-496.512 496.444v0.004c0.051 274.177 222.328 496.422 496.512 496.422 129.27 0 247.002-49.402 335.346-130.356l-0.37 0.335-118.656-116.16c-57.475 50.212-133.188 80.832-216.052 80.832-0.094 0-0.189 0-0.283 0h0.014c-182.828 0-331.040-148.212-331.040-331.040s148.212-331.040 331.040-331.040v0c163.219 0.097 298.787 118.359 325.796 273.865l0.284 1.975h-325.952v165.632h483.584l2.752-11.072z" />
<glyph unicode="&#xe904;" glyph-name="facebook" horiz-adv-x="448" d="M96.128-10.688h192.192v485.376h144.192l15.488 145.6h-159.68v97.024c13.568 49.536 17.728 73.216 80.512 73.216h63.68v169.472h-114.048c-161.28 0-217.92-82.24-222.336-242.688v-97.024h-96.128v-145.6h96.128v-485.376z" />
<glyph unicode="&#xe905;" glyph-name="chat" d="M921.6 704c56.32 0 102.4-46.080 102.4-102.4v-665.6l-153.6 153.6h-512c-56.32 0-102.4 46.080-102.4 102.4v102.4h409.6c87.040 0 153.6 66.56 153.6 153.6v256h102.4zM665.6 960c56.32 0 102.4-46.080 102.4-102.4v-409.6c0-56.32-46.080-102.4-102.4-102.4h-512l-153.6-153.6v665.6c0 56.32 46.080 102.4 102.4 102.4h563.2z" />
<glyph unicode="&#xe906;" glyph-name="minus" horiz-adv-x="5120" d="M0 140.8h5120v819.2h-5120z" />
<glyph unicode="&#xe907;" glyph-name="plus" d="M430.080 550.4h-430.080v-163.84h430.080v-450.56h163.84v450.56h430.080v163.84h-430.080v409.6h-163.84v-409.6z" />
<glyph unicode="&#xe908;" glyph-name="arrow-right" horiz-adv-x="542" d="M0 918.227l43.369 41.773 484.171-502.784-484.141-502.754-43.4 41.773 443.934 460.981z" />
<glyph unicode="&#xe909;" glyph-name="arrow-left" horiz-adv-x="542" d="M527.541 918.227l-43.369 41.773-484.171-502.784 484.141-502.754 43.4 41.773-443.934 460.981z" />
<glyph unicode="&#xe90a;" glyph-name="check" horiz-adv-x="1434" d="M144.794 605.082l-144.794-144.794 519.168-519.168 854.426 854.323-144.794 144.794-709.632-709.632z" />
<glyph unicode="&#xe90b;" glyph-name="clock" horiz-adv-x="1084" d="M554.586 56.471c221.064 0 397.553 176.489 397.553 397.553s-176.489 397.553-397.553 397.553c-221.064 0-397.553-176.489-397.553-397.553s176.489-397.553 397.553-397.553zM554.586-51.953c-0.556-0.002-1.213-0.003-1.871-0.003-278.412 0-504.109 225.697-504.109 504.109 0 0.658 0.001 1.316 0.004 1.973v-0.102c0 280.937 225.039 505.976 505.976 505.976s505.976-225.039 505.976-505.976-225.039-505.976-505.976-505.976zM608.798 705.024h-108.424v-273.468l166.49-166.43 76.68 76.619-134.746 134.746v228.533z" />
<glyph unicode="&#xe90c;" glyph-name="close" d="M499.468 529.53l-430.519 430.47-68.949-68.949 430.47-430.519-430.47-430.421 68.949-68.949 430.519 430.47 430.47-430.47 68.949 68.949-430.47 430.47 430.47 430.519-68.949 68.901-430.47-430.47z" />
<glyph unicode="&#xe90d;" glyph-name="delete" horiz-adv-x="922" d="M431.309 571.085l-304.128 304.128-115.61-115.917 304.128-304.128-318.771-318.464 115.712-116.019 318.566 318.566 304.128-304.128 115.917 115.917-304.128 304.128 289.587 289.587-115.712 115.917-289.69-289.587z" />
<glyph unicode="&#xe90e;" glyph-name="arrow-top" horiz-adv-x="1755" d="M814.226 628.955l-648.923-648.631-165.303 165.449 814.226 814.226 814.080-814.226-165.449-165.449z" />
<glyph unicode="&#xe90f;" glyph-name="arrow-bottom" horiz-adv-x="1755" d="M814.226 311.369l-648.923 648.631-165.303-165.449 814.226-814.226 814.080 814.226-165.449 165.449z" />
<glyph unicode="&#xe910;" glyph-name="envelope" horiz-adv-x="1408" d="M88.064 868.224h1170.048v-44.864l-509.632-462.976c-25.024-22.72-52.48-32.512-75.648-32.512s-50.624 9.792-75.712 32.576l-509.056 462.464v45.312zM385.92 430.464l-297.856-245.504v516.16l297.856-270.656zM1258.112 30.976h-1170.048v36.928l365.44 301.248 85.76-77.952c41.856-37.952 89.92-55.168 133.568-55.168s91.712 17.216 133.504 55.104l85.76 77.952 366.016-301.696v-36.416zM1258.112 701.632v-517.184l-298.432 246.016 298.432 271.168zM0-60.864h1346.176v1020.864h-1346.176v-1020.864z" />
<glyph unicode="&#xe911;" glyph-name="phone" d="M427.753 665.321l-80.989-80.989c19.591-42.168 41.485-78.41 66.754-111.966l-1.125 1.56c14.383-18.944 29.603-36.259 45.661-51.572 13.498-12.847 28.113-25.321 43.753-37.376 34.853-26.877 74.165-51.629 115.752-72.517l4.196-1.909 80.337 80.384c32.070 32.023 79.686 32.023 111.709 0l158.348-158.301c32.023-32.070 32.023-79.686 0-111.709l-121.53-121.437c-36.073-30.906-82.851-40.495-129.629-24.902-160.582 62.836-303.709 145.408-435.898 277.597-134.982 135.028-228.957 296.029-277.737 436.317-16.71 44.591-4.282 97.28 30.255 126.79l122.833 126.324c31.139 24.902 75.078 24.902 109.242-2.7l157.137-160.954c33.373-28.486 32.815-80.71 0.931-112.64zM384.326 728.529l-2.979 2.7-155.322 159.465c-7.447 5.958-17.548 5.958-21.876 2.793l-121.903-125.626c-15.593-13.359-21.132-37.050-13.591-57.251 45.987-132.189 134.982-284.858 262.516-412.393 124.742-124.742 260.561-203.078 412.020-262.377 23.273-7.727 46.127-3.025 63.162 11.45l119.715 119.668c6.563 6.609 6.563 13.033 0 19.549l-158.301 158.348c-6.609 6.563-13.033 6.563-19.549 0l-112.175-112.175-20.247 8.704c-20.947 9.442-36.862 17.482-52.445 26.052l3.944-1.988c-40.241 21.829-74.643 44.312-107.062 69.244l1.869-1.381c-18.066 13.909-34.039 27.624-49.258 42.123l0.246-0.232c-18.793 18.092-36.033 37.472-51.699 58.112l-0.898 1.234c-22.006 28.907-42.559 61.531-60.148 95.923l-1.711 3.684c-10.333 20.433-17.315 36.492-20.945 46.080l-7.447 19.735 111.383 111.43c6.144 6.144 6.144 14.429 2.7 17.129z" />
<glyph unicode="&#xe913;" glyph-name="catalog" horiz-adv-x="960" d="M52.864 292.181v127.061h42.667v-127.061h52.885v-42.667h-148.416v42.667h52.864zM52.864 514.773v127.083h42.667v-127.083h52.885v-42.667h-148.416v42.667h52.864zM95.531 737.387h52.885v-42.667h-148.416v42.667h52.864v201.28c0 11.782 9.551 21.333 21.333 21.333v0h779.136c11.782 0 21.333-9.551 21.333-21.333v0-890.453c0-11.782-9.551-21.333-21.333-21.333v0h-779.136c-11.782 0-21.333 9.551-21.333 21.333v0 148.416h42.667v-127.061h736.469v847.765h-736.469v-179.947zM138.197-15.765h779.136v890.432h42.667v-911.787c0-11.782-9.551-21.333-21.333-21.333v0h-800.469v42.667zM277.333 725.333h341.333v-256h-341.333v256z" />
<glyph unicode="&#xe914;" glyph-name="cart" horiz-adv-x="983" d="M428.605 0.717c17.909 0.070 32.4 14.604 32.4 32.522 0 0.043 0 0.087 0 0.13v-0.007c0 0.049 0 0.106 0 0.164 0 17.91-14.496 32.435-32.395 32.481h-0.004c-17.904-0.046-32.4-14.571-32.4-32.481 0-0.058 0-0.115 0-0.173v0.009c0-18.022 14.5-32.645 32.399-32.645zM752.026 0.717c17.909 0.070 32.4 14.604 32.4 32.522 0 0.043 0 0.087 0 0.13v-0.007c0 0.049 0 0.106 0 0.164 0 17.91-14.496 32.435-32.395 32.481h-0.004c-17.926-0.046-32.441-14.589-32.441-32.522 0-0.043 0-0.086 0-0.13v0.007c0-18.022 14.541-32.645 32.44-32.645zM824.156 382.587l76.227 277.873-658.76 37.396 70.656-366.387h448.594c29.942 0 55.992 20.685 63.283 51.118zM984.105 720.957l-10.691-38.912-86.63-315.761c-13.888-57.65-64.953-99.843-125.895-99.983h-436.732l9.503-45.056c4.096-23.388 24.248-40.468 47.841-40.468h490.701v-65.167h-67.953c27.15-17.654 44.851-47.843 44.851-82.167 0-0.028 0-0.057 0-0.085v0.004c0-0.11 0.001-0.239 0.001-0.369 0-53.687-43.418-97.234-97.056-97.443h-0.020c-53.681 0.209-97.117 43.774-97.117 97.484 0 0.115 0 0.231 0.001 0.346v-0.018c0 34.611 17.981 64.881 44.892 82.248h-218.972c27.15-17.654 44.851-47.843 44.851-82.167 0-0.028 0-0.057 0-0.085v0.004c0-0.11 0.001-0.239 0.001-0.369 0-53.687-43.418-97.234-97.056-97.443h-0.020c-53.658 0.209-97.076 43.756-97.076 97.443 0 0.13 0 0.26 0.001 0.389v-0.020c0 34.898 18.268 65.331 45.588 82.657-53.517 2.064-97.35 41.058-106.839 92.118l-0.108 0.697-121.692 578.15c-10.826 61.509-63.771 107.671-127.531 107.848h-20.95v65.167h20.931c95.284-0.147 174.478-68.852 190.9-159.419l0.178-1.185 7.332-35.021 764.764-43.418z" />
<glyph unicode="&#xe915;" glyph-name="user" horiz-adv-x="853" d="M768 148.907c0 52.907-95.147 117.248-220.8 138.325-4.361 0.738-8.263 2.199-11.764 4.268l0.159-0.087c-9.597 5.879-17.849 12.733-25.006 20.602l-0.082 0.092c-25.941 28.032-35.627 64.64-16.512 103.979l3.2 5.333c22.869 31.019 41.6 68.736 41.6 75.307 0.019 10.918 5.162 20.631 13.151 26.866l0.076 0.057c3.712 2.901 10.581 9.643 17.579 19.243 10.069 13.867 16.384 28.8 17.493 41.728 0 17.579-1.621 27.989-3.413 32.128 1.451-3.328 6.485-8.405 15.147-11.179-13.927 4.513-23.821 17.37-23.821 32.538 0 4.058 0.708 7.951 2.008 11.561l-0.075-0.238c10.069 28.715 12.971 90.325 2.475 134.656-12.245 51.755-36.352 73.301-80.683 65.109-1.874-0.365-4.028-0.574-6.231-0.574-13.038 0-24.368 7.31-30.117 18.055l-0.089 0.183c-5.547 10.667-39.168 24.619-75.52 24.277-45.909-0.427-85.419-21.12-110.165-64-32.768-55.424-40.448-123.904-18.133-175.445 1.835-4.229 2.902-9.154 2.902-14.329 0-15.208-9.219-28.262-22.374-33.879l-0.24-0.091c4.592 2.127 8.301 5.507 10.776 9.701l0.061 0.112c0.555 1.024 0-1.067-0.768-6.912-2.133-13.952 8.107-47.019 18.347-63.232 1.493-2.133 2.645-3.328 3.883-4.224 1.28-0.853 2.645-1.621 6.912-3.669 9.363-4.521 16.241-12.926 18.6-23.066l0.045-0.23c0.768-3.371 2.944-10.539 6.912-20.181 6.741-16.469 15.957-32.981 27.904-48.299 3.968-5.12 8.235-10.027 12.757-14.72 4.311-4.464 7.421-10.115 8.791-16.415l0.041-0.225c1.109-5.333 1.707-10.667 1.792-16.128 0.384-23.467-8.107-45.952-21.931-67.755-6.428-10.156-13.278-18.986-20.873-27.11l0.095 0.102c-4.938-5.159-11.46-8.766-18.783-10.040l-0.204-0.029c-126.72-21.291-224.853-86.144-224.853-138.325v-42.069c0-40.107 130.901-68.395 351.872-72.875 85.888 0 178.645 12.075 251.435 31.787 34.091 9.216 61.824 19.627 80.171 29.952 7.723 4.352 13.227 8.363 16.256 11.52v37.845zM836.267 148.907v-42.027c0-80.469-210.133-137.344-416.853-137.344-276.096 5.589-419.413 36.565-419.413 141.141v42.069c0 93.568 119.339 175.019 269.269 203.392 1.92 2.56 3.968 5.419 5.973 8.661 6.187 9.643 10.027 18.816 11.051 26.027-22.378 25.394-40.091 55.513-51.416 88.596l-0.552 1.857c-9.565 6.43-17.548 14.413-23.783 23.671l-0.195 0.308c-19.072 30.165-33.963 78.336-29.099 110.549 1.493 11.52 3.755 20.48 7.339 27.947-22.315 69.205-10.368 151.168 29.099 217.813 65.109 112.853 227.883 123.904 290.432 57.472 72.789 4.267 119.68-42.923 137.728-119.168 11.776-49.707 10.539-113.152 0.427-155.819 6.144-14.507 9.045-33.493 8.96-61.952-2.219-29.44-13.397-55.936-30.421-79.317-7.040-9.643-14.080-17.579-20.48-23.765-6.827-26.027-26.112-62.123-50.005-95.104-3.883-9.685-1.536-16.939 6.315-25.429 1.92-2.091 3.84-3.84 5.547-5.205 150.955-27.392 270.080-109.483 270.080-204.331z" />
<glyph unicode="&#xe916;" glyph-name="search" d="M413.912 851.833c-168.835-0.031-305.691-136.906-305.691-305.745 0-168.858 136.887-305.745 305.745-305.745s305.745 136.887 305.745 305.745v0c0 168.858-136.887 305.745-305.745 305.745-0.019 0-0.038 0-0.057 0h0.003zM1023.677 12.908l-76.423-76.531-281.708 281.654c-68.762-53.549-156.363-85.854-251.51-85.854-0.044 0-0.088 0-0.132 0h0.007c-228.597 0-413.912 185.315-413.912 413.912s185.315 413.912 413.912 413.912v0c228.597 0 413.912-185.315 413.912-413.912v0c0-0.036 0-0.079 0-0.122 0-95.121-32.284-182.702-86.493-252.383l0.693 0.925 281.654-281.6z" />
<glyph unicode="&#xe917;" glyph-name="burger" horiz-adv-x="1446" d="M0 960h1445.647v-150.588h-1445.647v150.588zM0 538.353h1445.647v-150.588h-1445.647v150.588zM0 116.706h1445.647v-150.588h-1445.647v150.588z" />
</font>
</defs>
</svg>
