<svg id="logo" xmlns="http://www.w3.org/2000/svg" viewBox="-202 397.4 169.3 47.5"><style>.st0{fill:#1ea349}.st1{fill:#313131}</style><path class="st0" d="M-177.6 416.3c-31.8 13.4-25.3 21.4-19.9 23.9 27.3 12.3 106.7-3.3 112.6-5.8-42.4 4.9-68.5-1.1-80.2-4.4-19.2-5.6-12.5-13.7-12.5-13.7zm27.9-8.5c42.3-4.8 68.4 1.1 80.2 4.3 19.1 5.6 12.5 13.6 12.5 13.6 31.7-13.3 25.3-21.2 19.9-23.7-27.3-12.1-106.7 3.3-112.6 5.8z"/><path class="st1" d="M-70.3 425.1l1.7-8h-3.7v.2c-.2.9-.4 1.7-.6 2.4-.2.8-.4 1.5-.6 2.1-.2.7-.5 1.3-.8 1.8s-.6 1-1 1.4h5v.1zm-9.1 0h1c.5-.5.9-1 1.2-1.6s.7-1.2.9-1.9c.3-.7.5-1.4.7-2.2s.4-1.7.6-2.6l.4-2h9.1l-2.2 10.3h1.4l-1.1 5.2H-70l.6-2.9h-8.1l-.6 2.9h-2.6l1.3-5.2zm-4.1-7.9h-3.9l.5-2.3h10.5l-.5 2.3h-3.8l-2.2 10.3h-2.8l2.2-10.3zm-17.3 10.4h-.9c-.2 0-.3 0-.5-.1-.2 0-.3-.1-.4-.1l.5-2.1h1.3c.1 0 .3-.1.4-.2.2-.1.3-.2.5-.4s.3-.4.4-.7c.2-.4.3-.8.5-1.3s.3-1.2.5-1.9c.2-.8.4-1.6.6-2.6s.5-2.1.7-3.3h9.1l-2.7 12.6h-2.7l2.2-10.3H-95c-.3 1.1-.5 2.1-.7 2.9-.2.8-.4 1.6-.5 2.2-.2.6-.3 1.2-.5 1.6-.1.4-.3.8-.5 1.2-.2.3-.3.6-.5.9s-.4.5-.7.7c-.4.3-.8.6-1.2.7-.2.2-.7.2-1.2.2zm-15.4-10.4h-3.9l.5-2.3h10.5l-.5 2.3h-3.8l-2.2 10.3h-2.8l2.2-10.3zm-9 5.4l-.6-5-2.7 5h3.3zm-1.6-7.7h2.8l2.1 12.6h-2.7l-.4-2.8h-4.7l-1.6 2.8h-2.9l7.4-12.6zm-8.8 5.9c.7 0 1.3-.2 1.7-.5.4-.4.6-.9.6-1.7 0-.3-.1-.6-.2-.8-.1-.2-.3-.4-.4-.5-.2-.1-.4-.2-.6-.2s-.5-.1-.7-.1h-2.4l-.8 3.8h2.8zm-4.4-5.9h5c.6 0 1.2.1 1.8.2.5.1 1 .3 1.4.6.4.3.7.7.9 1.1.2.5.3 1.1.3 1.7 0 .7-.1 1.3-.4 1.9-.3.5-.6 1-1.1 1.4s-1 .7-1.6.9c-.6.2-1.2.3-1.9.3h-3.4l-1 4.5h-2.7l2.7-12.6zm-6.6 7.7l-.6-5-2.7 5h3.3zm-1.6-7.7h2.8l2.1 12.6h-2.7l-.4-2.8h-4.7l-1.6 2.8h-2.9l7.4-12.6zm-17 0h2.8l-1.1 5.3 5.7-5.3h3.7l-6 5.2 3.9 7.4h-3.1l-2.9-5.7-1.9 1.7-.8 4h-2.8l2.5-12.6z"/></svg>