<?xml version="1.0" encoding="utf-8"?>
<!-- Generator: Adobe Illustrator 19.0.1, SVG Export Plug-In . SVG Version: 6.00 Build 0)  -->
<svg version="1.1" id="logo" xmlns="http://www.w3.org/2000/svg" xmlns:xlink="http://www.w3.org/1999/xlink" x="0px" y="0px"
	 viewBox="-202 397.4 169.3 47.5" style="enable-background:new -202 397.4 169.3 47.5;" xml:space="preserve">
<style type="text/css">
	.st0{fill:#1EA349;}
	.st1{fill:#313131;}
</style>
<path class="st0" d="M-177.6,416.3c-31.8,13.4-25.3,21.4-19.9,23.9c27.3,12.3,106.7-3.3,112.6-5.8c-42.4,4.9-68.5-1.1-80.2-4.4
	C-184.3,424.4-177.6,416.3-177.6,416.3z M-149.7,407.8c42.3-4.8,68.4,1.1,80.2,4.3c19.1,5.6,12.5,13.6,12.5,13.6
	c31.7-13.3,25.3-21.2,19.9-23.7C-64.4,389.9-143.8,405.3-149.7,407.8z"/>
<path class="st1" d="M-70.3,425.1l1.7-8h-3.7v0.2c-0.2,0.9-0.4,1.7-0.6,2.4c-0.2,0.8-0.4,1.5-0.6,2.1c-0.2,0.7-0.5,1.3-0.8,1.8
	s-0.6,1-1,1.4h5V425.1z M-79.4,425.1h1c0.5-0.5,0.9-1,1.2-1.6s0.7-1.2,0.9-1.9c0.3-0.7,0.5-1.4,0.7-2.2s0.4-1.7,0.6-2.6l0.4-2h9.1
	l-2.2,10.3h1.4l-1.1,5.2H-70l0.6-2.9h-8.1l-0.6,2.9h-2.6L-79.4,425.1z M-83.5,417.2h-3.9l0.5-2.3h10.5l-0.5,2.3h-3.8l-2.2,10.3h-2.8
	L-83.5,417.2z M-100.8,427.6c-0.1,0-0.3,0-0.4,0c-0.2,0-0.3,0-0.5,0s-0.3,0-0.5-0.1c-0.2,0-0.3-0.1-0.4-0.1l0.5-2.1c0,0,0.1,0,0.2,0
	s0.2,0,0.3,0c0.1,0,0.2,0,0.3,0c0.1,0,0.2,0,0.2,0c0.1,0,0.2,0,0.3,0c0.1,0,0.3-0.1,0.4-0.2c0.2-0.1,0.3-0.2,0.5-0.4
	c0.2-0.2,0.3-0.4,0.4-0.7c0.2-0.4,0.3-0.8,0.5-1.3s0.3-1.2,0.5-1.9c0.2-0.8,0.4-1.6,0.6-2.6s0.5-2.1,0.7-3.3h9.1l-2.7,12.6h-2.7
	l2.2-10.3H-95c-0.3,1.1-0.5,2.1-0.7,2.9c-0.2,0.8-0.4,1.6-0.5,2.2c-0.2,0.6-0.3,1.2-0.5,1.6c-0.1,0.4-0.3,0.8-0.5,1.2
	c-0.2,0.3-0.3,0.6-0.5,0.9s-0.4,0.5-0.7,0.7c-0.4,0.3-0.8,0.6-1.2,0.7C-99.8,427.6-100.3,427.6-100.8,427.6z M-116.2,417.2h-3.9
	l0.5-2.3h10.5l-0.5,2.3h-3.8l-2.2,10.3h-2.8L-116.2,417.2z M-125.2,422.6l-0.6-5l0,0l-2.7,5H-125.2z M-126.8,414.9h2.8l2.1,12.6
	h-2.7l-0.4-2.8h-4.7l-1.6,2.8h-2.9L-126.8,414.9z M-135.6,420.8c0.7,0,1.3-0.2,1.7-0.5c0.4-0.4,0.6-0.9,0.6-1.7
	c0-0.3-0.1-0.6-0.2-0.8c-0.1-0.2-0.3-0.4-0.4-0.5c-0.2-0.1-0.4-0.2-0.6-0.2s-0.5-0.1-0.7-0.1h-2.4l-0.8,3.8
	C-138.4,420.8-135.6,420.8-135.6,420.8z M-140,414.9h5c0.6,0,1.2,0.1,1.8,0.2c0.5,0.1,1,0.3,1.4,0.6c0.4,0.3,0.7,0.7,0.9,1.1
	c0.2,0.5,0.3,1.1,0.3,1.7c0,0.7-0.1,1.3-0.4,1.9c-0.3,0.5-0.6,1-1.1,1.4s-1,0.7-1.6,0.9c-0.6,0.2-1.2,0.3-1.9,0.3h-3.4l-1,4.5h-2.7
	L-140,414.9z M-146.6,422.6l-0.6-5l0,0l-2.7,5H-146.6z M-148.2,414.9h2.8l2.1,12.6h-2.7l-0.4-2.8h-4.7l-1.6,2.8h-2.9L-148.2,414.9z
	 M-165.2,414.9h2.8l-1.1,5.3l5.7-5.3h3.7l-6,5.2l3.9,7.4h-3.1l-2.9-5.7l-1.9,1.7l-0.8,4h-2.8L-165.2,414.9z"/>
</svg>
